<?xml version="1.0" standalone="no"?>
<!DOCTYPE svg PUBLIC "-//W3C//DTD SVG 20010904//EN"
 "http://www.w3.org/TR/2001/REC-SVG-20010904/DTD/svg10.dtd">
<svg version="1.0" xmlns="http://www.w3.org/2000/svg"
 width="300.000000pt" height="300.000000pt" viewBox="0 0 300.000000 300.000000"
 preserveAspectRatio="xMidYMid meet">
<metadata>
Created by potrace 1.10, written by Peter Selinger 2001-2011
</metadata>
<g transform="translate(0.000000,300.000000) scale(0.100000,-0.100000)"
fill="#000000" stroke="none">
<path d="M1510 2283 c-106 -18 -256 -88 -358 -168 -133 -104 -237 -257 -278
-410 -19 -71 -29 -263 -17 -320 l9 -40 97 -3 c53 -1 97 -1 97 0 0 2 -10 28
-22 58 -20 48 -23 73 -23 200 0 161 14 231 65 335 46 93 109 158 196 202 66
32 87 37 163 41 103 5 175 -8 259 -48 217 -102 332 -293 332 -549 0 -53 -7
-127 -15 -166 -8 -38 -15 -71 -15 -72 0 -2 29 -3 65 -3 l66 0 20 48 c37 85 50
154 50 267 -1 277 -122 481 -345 580 -98 43 -249 64 -346 48z m270 -65 c171
-52 282 -159 348 -336 60 -163 30 -492 -46 -492 -16 0 -17 15 -17 173 -1 160
-2 177 -27 244 -38 105 -72 159 -152 238 -80 79 -175 134 -276 160 -97 25 -99
27 -70 36 37 12 166 0 240 -23z m-786 -399 c-20 -71 -26 -297 -10 -381 l8 -48
-46 0 c-41 0 -46 3 -52 26 -13 52 3 226 29 306 24 75 74 174 83 165 3 -3 -3
-33 -12 -68z"/>
<path d="M2489 1645 c-63 -49 -80 -70 -99 -115 -13 -30 -38 -83 -57 -118 -18
-35 -33 -66 -33 -68 0 -2 20 -4 43 -4 38 0 46 4 57 28 l14 27 8 -50 c19 -121
20 -137 9 -163 -8 -20 -7 -100 3 -291 13 -260 11 -304 -13 -350 -7 -12 -11
-24 -9 -25 10 -9 171 29 233 55 84 35 120 64 64 52 -19 -5 -56 -8 -84 -8 -40
0 -49 3 -45 15 6 18 3 275 -7 740 l-8 336 -76 -61z m46 -352 c4 -175 9 -399
11 -498 1 -99 5 -187 9 -196 4 -12 -1 -18 -17 -23 -59 -15 -58 -17 -59 127 0
72 -4 197 -8 277 -5 93 -4 167 2 207 10 55 8 71 -11 132 -24 73 -42 97 -68 87
-18 -7 -14 9 22 89 22 48 82 115 103 115 4 0 11 -143 16 -317z"/>
<path d="M1443 1641 l-52 -59 -6 -83 c-3 -46 -8 -101 -11 -121 l-4 -38 140 0
141 0 -72 135 c-42 80 -73 154 -77 181 l-7 45 -52 -60z m87 -153 c22 -42 40
-82 40 -87 0 -7 -29 -11 -76 -11 l-77 0 6 86 c4 62 11 92 24 106 17 19 18 19
30 1 8 -10 31 -52 53 -95z"/>
<path d="M1273 1275 c-40 -73 -39 -73 -64 -22 -13 26 -26 47 -30 47 -6 0 -19
-74 -19 -111 0 -11 5 -19 10 -19 6 0 10 6 9 13 -1 6 -1 26 0 42 2 30 2 30 25
-15 l24 -44 22 44 c19 38 24 41 32 26 6 -10 8 -29 5 -42 -3 -19 -1 -24 12 -21
9 2 14 10 12 18 -2 8 -6 39 -10 69 l-7 55 -21 -40z"/>
<path d="M1760 1261 c-18 -28 -35 -49 -39 -47 -4 3 -16 23 -26 46 -22 49 -35
51 -35 6 0 -18 -3 -48 -6 -65 -4 -20 -3 -31 5 -31 6 0 11 19 12 48 l0 47 22
-42 c11 -24 24 -43 29 -43 4 0 15 16 24 35 24 52 34 52 34 0 0 -32 4 -45 12
-43 8 3 11 26 9 69 -1 35 -4 66 -6 68 -2 2 -18 -20 -35 -48z"/>
<path d="M680 1280 c-37 -37 -15 -110 32 -110 32 0 68 40 68 75 0 54 -60 75
-100 35z m64 -3 c39 -29 -1 -106 -41 -81 -34 21 -25 94 11 94 7 0 20 -6 30
-13z"/>
<path d="M820 1275 c0 -16 -3 -47 -7 -69 -5 -30 -3 -38 8 -34 9 3 13 17 11 44
l-2 39 39 -43 c44 -48 51 -43 51 39 0 35 -4 49 -14 49 -11 0 -12 -8 -5 -41 6
-23 8 -43 6 -46 -5 -4 -46 38 -71 72 -15 19 -15 19 -16 -10z"/>
<path d="M960 1235 l0 -65 30 0 c17 0 30 5 30 10 0 6 -9 10 -20 10 -28 0 -26
36 3 45 l22 8 -22 4 c-34 7 -30 41 5 46 22 3 20 4 -10 6 l-38 1 0 -65z"/>
<path d="M1078 1289 c-26 -15 -22 -44 7 -57 35 -16 33 -44 -2 -40 -15 2 -28
-2 -30 -9 -7 -20 42 -16 60 5 23 25 21 36 -8 52 -31 17 -29 46 3 43 12 -2 22
2 22 7 0 13 -30 12 -52 -1z"/>
<path d="M1350 1244 c5 -61 23 -83 56 -69 17 7 17 8 -6 14 -23 6 -25 12 -25
59 0 40 -4 52 -15 52 -12 0 -14 -10 -10 -56z"/>
<path d="M1428 1235 c3 -46 8 -65 17 -65 8 0 17 5 20 10 3 6 1 10 -5 10 -8 0
-11 18 -8 55 2 44 0 55 -12 55 -12 0 -14 -12 -12 -65z"/>
<path d="M1504 1279 c-18 -20 -18 -21 14 -47 40 -34 41 -46 2 -40 -20 3 -30 0
-30 -9 0 -20 35 -16 61 7 l24 20 -34 28 c-35 30 -35 58 0 49 10 -3 22 -1 25 4
11 19 -44 8 -62 -12z"/>
<path d="M1871 1278 c-5 -13 -16 -40 -25 -62 -9 -21 -16 -41 -16 -43 0 -10 25
4 26 15 1 7 2 17 3 22 2 15 41 12 41 -2 0 -21 17 -41 28 -34 7 4 6 15 -4 34
-7 15 -17 42 -20 60 -7 37 -21 41 -33 10z"/>
<path d="M1968 1234 c3 -44 8 -64 15 -61 7 2 10 16 9 32 l-4 28 30 -30 c38
-38 89 -43 94 -10 4 30 48 37 48 8 0 -23 15 -35 31 -25 7 4 8 9 1 13 -5 3 -16
28 -24 54 -8 27 -18 47 -23 45 -6 -2 -21 -27 -35 -56 l-25 -53 -34 23 c-45 30
-46 38 -16 71 25 26 25 27 5 27 -12 0 -19 -4 -16 -9 3 -4 -4 -17 -16 -27 -21
-19 -21 -19 -16 9 4 20 1 27 -11 27 -13 0 -15 -10 -13 -66z"/>
<path d="M2224 1284 c3 -9 6 -35 6 -59 0 -35 4 -45 20 -50 11 -3 28 -2 37 4
16 9 14 10 -9 11 -32 0 -41 21 -29 73 8 33 7 37 -11 37 -14 0 -18 -5 -14 -16z"/>
<path d="M2308 1235 c5 -89 27 -89 27 0 0 51 -3 65 -15 65 -12 0 -14 -12 -12
-65z"/>
<path d="M970 1118 c0 -3 32 -36 72 -73 48 -45 99 -79 155 -107 46 -22 86 -38
89 -35 3 3 8 47 11 99 6 91 5 94 -18 105 -25 13 -309 23 -309 11z m286 -62
c10 -43 1 -81 -22 -84 -22 -3 -145 74 -152 96 -3 9 18 12 82 12 82 0 86 -1 92
-24z"/>
<path d="M1365 1115 c-2 -5 -6 -62 -10 -125 -12 -228 -47 -423 -80 -450 -27
-22 -16 -27 45 -18 59 8 107 27 173 69 l32 21 -47 -6 c-26 -3 -61 -3 -76 0
l-29 6 19 71 c18 69 40 226 53 373 l6 70 -42 0 c-23 -1 -43 -5 -44 -11z"/>
<path d="M1580 1123 c0 -1 36 -69 81 -150 117 -215 177 -341 192 -400 l13 -51
66 75 c37 41 72 91 79 111 21 66 97 211 164 313 36 55 65 102 65 104 0 2 -16
3 -35 2 -31 -2 -39 -9 -69 -57 -71 -118 -185 -291 -190 -290 -3 0 -45 77 -94
170 l-88 171 -92 2 c-51 1 -92 1 -92 0z m239 -195 c89 -170 105 -192 138 -183
13 3 23 3 23 0 0 -25 -73 -125 -91 -125 -4 0 -14 19 -24 43 -9 23 -59 121
-111 218 -52 97 -94 181 -94 188 0 8 14 11 41 9 l41 -3 77 -147z"/>
<path d="M1848 1113 c-6 -8 -5 -20 4 -38 l14 -26 47 37 c26 20 47 38 47 40 0
9 -103 -3 -112 -13z"/>
<path d="M1496 959 c-4 -33 -5 -63 -3 -66 5 -4 116 22 123 30 2 2 -6 22 -18
45 -16 29 -30 42 -45 42 -12 0 -28 2 -36 6 -11 4 -16 -9 -21 -57z"/>
</g>
</svg>
